#!OML:ASF H:\Martial Arts Walks\Project 1\Capture day 1\Session 1\male.ASF
:FULLY-SPECIFIED
:DEGREES
1411
root -0.550783 13.9399 19.8195 12.1347 31.481 10.929
lowerback 11.5288 2.94631 -12.0605
upperback -2.39459 2.02121 -1.4524
thorax -9.53357 1.60241 4.80255
lowerneck 2.83869 -13.594 -13.2148
upperneck 1.1198 -18.7383 12.3712
head 2.28658 -9.4262 5.16092
rclavicle 9.71809e-014 -1.31198e-014
rhumerus 45.2157 -16.3764 -57.6482
rradius 17.7749
rwrist 28.3381
rhand -16.9104 -30.3054
rfingers 7.12502
rthumb 9.32177 -60.0793
lclavicle 9.71809e-014 -1.31198e-014
lhumerus -72.4813 -16.6336 102.727
lradius 102.461
lwrist 62.5696
lhand -6.11278 40.7992
lfingers 7.12502
lthumb 19.7239 69.8186
rfemur -66.576 -29.9696 9.72221
rtibia 71.5843
rfoot -6.55273 15.1733
rtoes 10.7337
lfemur 9.86975 4.58131 -10.184
ltibia 29.932
lfoot -17.978 29.8008
ltoes -33.7306
1412
root -0.556618 13.9376 19.818 12.1237 31.5321 10.8981
lowerback 11.5563 2.90995 -12.0368
upperback -2.39449 1.97319 -1.43934
thorax -9.54002 1.57882 4.81314
lowerneck 2.8476 -13.5854 -13.2142
upperneck 1.10912 -18.7277 12.3875
head 2.28224 -9.42124 5.16752
rclavicle 2.52953e-014 1.98785e-015
rhumerus 45.2551 -16.3454 -57.6658
rradius 17.7732
rwrist 28.3539
rhand -16.8246 -30.2492
rfingers 7.12502
rthumb 9.40462 -60.0194
lclavicle 2.52953e-014 1.98785e-015
lhumerus -72.4748 -16.6374 102.723
lradius 102.432
lwrist 62.6295
lhand -6.09689 40.7794
lfingers 7.12502
lthumb 19.7392 69.7971
rfemur -66.6073 -29.9679 9.77325
rtibia 71.6142
rfoot -6.55106 15.115
rtoes 10.4878
lfemur 9.75738 4.52469 -10.1344
ltibia 30.0908
lfoot -18.0113 29.8319
ltoes -33.766
1413
root -0.561946 13.9355 19.8171 12.0666 31.5827 10.846
lowerback 11.6023 2.87897 -11.9924
upperback -2.38121 1.934 -1.42258
thorax -9.54315 1.55769 4.81429
lowerneck 2.85731 -13.5771 -13.2136
upperneck 1.1044 -18.7176 12.4001
head 2.27925 -9.41657 5.17286
rclavicle -1.50082e-014 4.69132e-014
rhumerus 45.2992 -16.3352 -57.7111
rradius 17.7654
rwrist 28.3887
rhand -16.741 -30.1947
rfingers 7.12502
rthumb 9.48526 -59.9613
lclavicle -1.50082e-014 4.69132e-014
lhumerus -72.4717 -16.6461 102.719
lradius 102.408
lwrist 62.6828
lhand -6.08508 40.7881
lfingers 7.12502
lthumb 19.7506 69.8047
rfemur -66.5879 -29.9511 9.82058
rtibia 71.6431
rfoot -6.56337 15.044
rtoes 10.2013
lfemur 9.69575 4.46327 -10.0643
ltibia 30.2339
lfoot -18.0408 29.8644
ltoes -33.7898
1414
root -0.566366 13.9335 19.8169 11.977 31.6192 10.7752
lowerback 11.6461 2.85641 -11.9323
upperback -2.35667 1.90983 -1.40311
thorax -9.53443 1.54191 4.80689
lowerneck 2.87013 -13.5694 -13.2136
upperneck 1.09895 -18.7087 12.4109
head 2.27555 -9.41261 5.17792
rclavicle -1.33732e-013 1.82882e-014
rhumerus 45.3308 -16.3168 -57.7344
rradius 17.7589
rwrist 28.4071
rhand -16.6735 -30.1642
rfingers 7.12502
rthumb 9.55037 -59.9278
lclavicle -1.33732e-013 1.82882e-014
lhumerus -72.4664 -16.6613 102.717
lradius 102.385
lwrist 62.7211
lhand -6.07235 40.8167
lfingers 7.12502
lthumb 19.7628 69.832
rfemur -66.5371 -29.9114 9.86827
rtibia 71.671
rfoot -6.58735 14.9615
rtoes 9.87344
lfemur 9.67091 4.41208 -9.97992
ltibia 30.3746
lfoot -18.0745 29.9021
ltoes -33.8014
1415
root -0.570961 13.9317 19.816 11.8742 31.6613 10.6889
lowerback 11.6975 2.83632 -11.8544
upperback -2.32908 1.891 -1.38082
thorax -9.52693 1.52773 4.79138
lowerneck 2.88417 -13.5639 -13.2116
upperneck 1.08887 -18.7022 12.4192
head 2.27016 -9.40991 5.18208
rclavicle -2.17918e-014 -3.73715e-014
rhumerus 45.3467 -16.2834 -57.7182
rradius 17.7537
rwrist 28.4031
rhand -16.6284 -30.1633
rfingers 7.12502
rthumb 9.59388 -59.9248
lclavicle -2.17918e-014 -3.73715e-014
lhumerus -72.4558 -16.6861 102.722
lradius 102.362
lwrist 62.7372
lhand -6.06102 40.8725
lfingers 7.12502
lthumb 19.7737 69.8867
rfemur -66.473 -29.8593 9.92354
rtibia 71.693
rfoot -6.61496 14.8562
rtoes 9.51584
lfemur 9.63768 4.35932 -9.88032
ltibia 30.5365
lfoot -18.111 29.9413
ltoes -33.8012
1416
root -0.576585 13.93 19.8136 11.7745 31.7186 10.5911
lowerback 11.7577 2.81472 -11.7637
upperback -2.3046 1.8709 -1.3556
thorax -9.52736 1.51284 4.7719
lowerneck 2.89464 -13.56 -13.2067
upperneck 1.07762 -18.6975 12.4252
head 2.26471 -9.40794 5.1848
rclavicle 4.08751e-014 8.34896e-015
rhumerus 45.3583 -16.2593 -57.6986
rradius 17.7442
rwrist 28.4296
rhand -16.6059 -30.1706
rfingers 7.12502
rthumb 9.61564 -59.9311
lclavicle 4.08751e-014 8.34896e-015
lhumerus -72.442 -16.7213 102.732
lradius 102.341
lwrist 62.7284
lhand -6.04283 40.9243
lfingers 7.12502
lthumb 19.7912 69.9367
rfemur -66.4107 -29.7955 9.9882
rtibia 71.7073
rfoot -6.64433 14.7211
rtoes 9.10658
lfemur 9.55907 4.30396 -9.7649
ltibia 30.7454
lfoot -18.1524 29.9785
ltoes -33.7845
1417
root -0.582875 13.9285 19.81 11.6826 31.7787 10.4825
lowerback 11.8115 2.79389 -11.665
upperback -2.282 1.85418 -1.32744
thorax -9.52652 1.49926 4.75058
lowerneck 2.89802 -13.5581 -13.1975
upperneck 1.06714 -18.6943 12.4269
head 2.26 -9.4065 5.18506
rclavicle -8.11538e-014 -1.55052e-014
rhumerus 45.3625 -16.2317 -57.6562
rradius 17.7351
rwrist 28.4626
rhand -16.6033 -30.184
rfingers 7.12502
rthumb 9.61815 -59.9444
lclavicle -8.11538e-014 -1.55052e-014
lhumerus -72.4221 -16.7621 102.749
lradius 102.321
lwrist 62.6912
lhand -6.01419 40.9494
lfingers 7.12502
lthumb 19.8187 69.9589
rfemur -66.3587 -29.7091 10.0609
rtibia 71.7128
rfoot -6.66698 14.5623
rtoes 8.67095
lfemur 9.42181 4.26136 -9.63726
ltibia 31.0272
lfoot -18.2219 30.0122
ltoes -33.7318
